<svg width="39" height="39" viewBox="0 0 39 39" fill="none" xmlns="http://www.w3.org/2000/svg">
<path d="M16.8586 12.2964C15.1249 13.6024 13.3618 15.1316 11.6428 16.8506C3.9612 24.5323 0.0692301 33.0946 2.94983 35.9753C5.83041 38.8557 14.3928 34.9638 22.0744 27.2822C23.7934 25.5632 25.3226 23.8001 26.6286 22.0664" stroke="#F6F7FA" stroke-width="3" stroke-linecap="round" stroke-linejoin="round"/>
<path d="M26.6286 22.0665C31.1588 28.08 33.0034 33.7392 30.7674 35.9753C27.8867 38.856 19.3244 34.9638 11.6428 27.2823C3.9612 19.6007 0.0692301 11.0383 2.94983 8.15772C5.1858 5.92174 10.8451 7.76634 16.8586 12.2965" stroke="#F6F7FA" stroke-width="3" stroke-linecap="round" stroke-linejoin="round"/>
<path d="M15.5078 22.0665C15.5078 22.8125 16.1126 23.4173 16.8586 23.4173C17.6046 23.4173 18.2094 22.8125 18.2094 22.0665C18.2094 21.3204 17.6046 20.7157 16.8586 20.7157C16.1126 20.7157 15.5078 21.3204 15.5078 22.0665Z" stroke="#F6F7FA" stroke-width="3" stroke-linecap="round" stroke-linejoin="round"/>
<path d="M22.2871 10.3043C21.4385 10.1566 21.4385 8.93836 22.2871 8.79072C25.3616 8.25584 27.8069 5.91407 28.4742 2.86556L28.5255 2.63188C28.7089 1.79314 29.9033 1.78792 30.0943 2.62502L30.1564 2.89735C30.8483 5.93147 33.2943 8.25346 36.3603 8.78685C37.2135 8.93525 37.2135 10.1597 36.3603 10.3081C33.2943 10.8415 30.8483 13.1635 30.1564 16.1977L30.0943 16.47C29.9033 17.3071 28.7089 17.3019 28.5255 16.4631L28.4742 16.2294C27.8069 13.1809 25.3616 10.8391 22.2871 10.3043Z" stroke="#F6F7FA" stroke-width="3" stroke-linecap="round" stroke-linejoin="round"/>
</svg>
