<svg width="39" height="39" viewBox="0 0 39 39" fill="none" xmlns="http://www.w3.org/2000/svg">
<path d="M18.1538 34.3077C27.0754 34.3077 34.3077 27.0754 34.3077 18.1538C34.3077 9.23232 27.0754 2 18.1538 2C9.23232 2 2 9.23232 2 18.1538C2 27.0754 9.23232 34.3077 18.1538 34.3077Z" stroke="#F6F7FA" stroke-width="3" stroke-linecap="round" stroke-linejoin="round"/>
<path d="M29.5692 29.5699L37 37.0007" stroke="#F6F7FA" stroke-width="3" stroke-linecap="round" stroke-linejoin="round"/>
<path d="M9.94118 19.0372C8.95092 18.8649 8.95092 17.4434 9.94118 17.2711C13.5287 16.647 16.3821 13.9144 17.1607 10.3573L17.2204 10.0846C17.4347 9.10591 18.8282 9.09983 19.051 10.0766L19.1235 10.3944C19.931 13.9347 22.7851 16.6442 26.3627 17.2666C27.358 17.4397 27.358 18.8685 26.3627 19.0417C22.7851 19.6641 19.931 22.3735 19.1235 25.9139L19.051 26.2317C18.8282 27.2085 17.4347 27.2024 17.2204 26.2237L17.1607 25.951C16.3821 22.3938 13.5287 19.6613 9.94118 19.0372Z" stroke="#F6F7FA" stroke-width="3" stroke-linecap="round" stroke-linejoin="round"/>
</svg>
