<svg width="39" height="39" viewBox="0 0 39 39" fill="none" xmlns="http://www.w3.org/2000/svg">
<path d="M14.7675 22.889H3.34394C2.60171 22.889 2 23.4907 2 24.2329V35.6564C2 36.3986 2.60171 37.0004 3.34394 37.0004H14.7675C15.5097 37.0004 16.1114 36.3986 16.1114 35.6564V24.2329C16.1114 23.4907 15.5097 22.889 14.7675 22.889Z" stroke="#F6F7FA" stroke-width="3" stroke-linecap="round" stroke-linejoin="round"/>
<path d="M35.6561 22.889H24.2324C23.4902 22.889 22.8885 23.4907 22.8885 24.2329V35.6564C22.8885 36.3986 23.4902 37.0004 24.2324 37.0004H35.6561C36.3983 37.0004 36.9998 36.3986 36.9998 35.6564V24.2329C36.9998 23.4907 36.3983 22.889 35.6561 22.889Z" stroke="#F6F7FA" stroke-width="3" stroke-linecap="round" stroke-linejoin="round"/>
<path d="M14.7675 2H3.34394C2.60171 2 2 2.60171 2 3.34394V14.7675C2 15.5097 2.60171 16.1114 3.34394 16.1114H14.7675C15.5097 16.1114 16.1114 15.5097 16.1114 14.7675V3.34394C16.1114 2.60171 15.5097 2 14.7675 2Z" stroke="#F6F7FA" stroke-width="3" stroke-linecap="round" stroke-linejoin="round"/>
<path d="M22.6538 10.0973C21.8263 9.95333 21.8263 8.76541 22.6538 8.62146C25.6516 8.09992 28.036 5.81649 28.6868 2.84398L28.7366 2.61613C28.9156 1.79829 30.0801 1.7932 30.2662 2.60944L30.3267 2.87498C31.0018 5.83348 33.3866 8.0976 36.3763 8.61769C37.208 8.76238 37.208 9.95636 36.3763 10.1011C33.3866 10.6212 31.0018 12.8853 30.3267 15.8438L30.2662 16.1093C30.0801 16.9256 28.9156 16.9205 28.7366 16.1026L28.6868 15.8748C28.036 12.9023 25.6516 10.6189 22.6538 10.0973Z" stroke="#F6F7FA" stroke-width="3" stroke-linecap="round" stroke-linejoin="round"/>
</svg>
