<svg width="39" height="39" viewBox="0 0 39 39" fill="none" xmlns="http://www.w3.org/2000/svg">
<path d="M6.04132 36.9956V30.2666H12.7704" stroke="#F6F7FA" stroke-width="3" stroke-linecap="round" stroke-linejoin="round"/>
<path d="M36.6986 16.2847C38.3729 25.1885 32.9243 34.0155 24.0282 36.3993C17.2196 38.2237 10.2724 35.7696 6.04132 30.6851" stroke="#F6F7FA" stroke-width="3" stroke-linecap="round" stroke-linejoin="round"/>
<path d="M2.30142 22.7151C0.627106 13.8113 6.07586 4.98416 14.9718 2.6005C21.78 0.77624 28.7267 3.22987 32.9579 8.31368" stroke="#F6F7FA" stroke-width="3" stroke-linecap="round" stroke-linejoin="round"/>
<path d="M32.9576 2.00464V8.73376H26.2286" stroke="#F6F7FA" stroke-width="3" stroke-linecap="round" stroke-linejoin="round"/>
<path d="M11.6035 20.4051C10.6514 20.2395 10.6514 18.8726 11.6035 18.707C15.0529 18.1069 17.7965 15.4795 18.5452 12.0592L18.6026 11.7971C18.8086 10.8561 20.1485 10.8502 20.3627 11.7894L20.4324 12.0949C21.2088 15.499 23.9531 18.1042 27.3929 18.7026C28.3498 18.8691 28.3498 20.2429 27.3929 20.4094C23.9531 21.0079 21.2088 23.613 20.4324 27.0171L20.3627 27.3227C20.1485 28.2619 18.8086 28.256 18.6026 27.315L18.5452 27.0528C17.7965 23.6325 15.0529 21.0052 11.6035 20.4051Z" stroke="#F6F7FA" stroke-width="3" stroke-linecap="round" stroke-linejoin="round"/>
</svg>
