<svg width="39" height="39" viewBox="0 0 39 39" fill="none" xmlns="http://www.w3.org/2000/svg">
<path d="M19.2974 36.5114L11.1217 37.2199L11.8303 29.0443L28.8356 12.1479C29.0896 11.8884 29.3926 11.6821 29.7273 11.5413C30.0616 11.4005 30.4211 11.328 30.7841 11.328C31.1471 11.328 31.5066 11.4005 31.8412 11.5413C32.1759 11.6821 32.4789 11.8884 32.7326 12.1479L36.1937 15.6362C36.449 15.8896 36.6518 16.191 36.7902 16.5231C36.9286 16.8552 36.9998 17.2114 36.9998 17.5711C36.9998 17.9309 36.9286 18.2871 36.7902 18.6192C36.6518 18.9513 36.449 19.2527 36.1937 19.506L19.2974 36.5114Z" stroke="#F6F7FA" stroke-width="3" stroke-linecap="round" stroke-linejoin="round"/>
<path d="M2.71727 11.3583C1.76091 11.1919 1.76091 9.81899 2.71727 9.65261C6.18201 9.04982 8.93769 6.41083 9.68974 2.97541L9.74738 2.71208C9.95428 1.76688 11.3001 1.761 11.5153 2.70435L11.5853 3.01124C12.3651 6.43045 15.1216 9.04715 18.5767 9.64825C19.5379 9.81547 19.5379 11.1954 18.5767 11.3626C15.1216 11.9637 12.3651 14.5804 11.5853 17.9996L11.5153 18.3065C11.3001 19.2499 9.95428 19.244 9.74738 18.2988L9.68974 18.0355C8.93769 14.6 6.18201 11.961 2.71727 11.3583Z" stroke="#F6F7FA" stroke-width="3" stroke-linecap="round" stroke-linejoin="round"/>
</svg>
